<svg t="1676285181576" class="icon" viewBox="0 0 1024 1024" version="1.1" xmlns="http://www.w3.org/2000/svg" p-id="13965" width="200" height="200"><path d="M268.1088 205.9776l-108.032 253.4656c-7.3216 17.1008-5.1456 29.1328 3.9936 47.9488l4.9664 9.856 194.4576 404.3264c10.9568 22.7328 38.016 28.5184 59.008 18.176l371.2768-184.4736 4.4032-2.8672 3.328-2.7392c15.0272-14.592 19.3536-34.4832 10.5728-52.7616l-195.9936-407.552-2.2528-5.0432c-7.7312-17.1008-15.6928-27.0592-32.2048-31.4368L318.3872 183.168c-19.0976-5.0688-41.984 3.328-50.2784 22.784zM202.4448 477.5168l106.24-249.2672 261.12 69.1712c-0.768-0.2048-0.6144 0.1536 0.5376 2.6368l4.9664 10.88 194.6368 404.7104-366.7456 182.2208-193.4336-402.176-4.8128-9.6c-2.7648-5.76-3.0208-7.3728-2.5088-8.576z" fill="#666666" p-id="13966"></path><path d="M336.0768 122.2656a23.04 23.04 0 0 1 25.216-17.1264l2.8416 0.5376 273.2544 70.2464c15.1296 3.8912 23.1424 12.7744 30.208 27.4688l5.0944 11.52 193.024 415.3856a23.04 23.04 0 0 1-40.448 21.9648l-1.3568-2.56-126.6432-272.512L629.248 230.656l-3.9424-9.0368c-0.3328-0.8448-0.3072-1.152 0.0768-1.152l-44.928-11.5968-227.8144-58.5472a23.04 23.04 0 0 1-16.5888-28.0576z" fill="#666666" p-id="13967"></path><path d="M339.4048 319.3344c-50.688 22.016-68.096 83.968-45.9008 134.912 22.0928 50.6368 84.096 68.0448 135.0656 45.8496 50.688-22.0928 68.1472-84.0448 45.9008-134.9632-27.3408-50.6112-83.84-68.1472-135.0656-45.824z m93.696 66.0224c11.9296 27.4688 2.3296 61.4912-22.912 72.4992-29.3376 12.7488-63.4368 3.1744-74.4448-22.016-12.1856-27.9552-4.0192-60.2112 18.7392-72.6272l3.328-1.6384c29.8496-13.0304 60.4928-3.5072 75.264 23.7824z" fill="#FF6D00" p-id="13968"></path></svg>