<svg t="1676899940077" class="icon" viewBox="0 0 1024 1024" version="1.1" xmlns="http://www.w3.org/2000/svg" p-id="2702" width="200" height="200"><path d="M884.463519 156.017167H139.536481c-61.527897 0-109.871245 48.343348-109.871245 109.871245v103.27897h964.669528v50.540773H29.665236v492.223175c0 61.527897 48.343348 109.871245 109.871245 109.871245h744.927038c61.527897 0 109.871245-48.343348 109.871245-109.871245V265.888412c0-59.330472-48.343348-109.871245-109.871245-109.871245z" fill="#FDDFDF" p-id="2703"></path><path d="M697.682403 35.158798H732.841202c17.579399 0 32.961373 15.381974 32.961373 32.961374v134.042918c0 17.579399-15.381974 32.961373-32.961373 32.961374h-35.158799c-17.579399 0-32.961373-15.381974-32.961373-32.961374V68.120172c0-17.579399 13.184549-32.961373 32.961373-32.961374z" fill="#FDDFDF" p-id="2704"></path><path d="M732.841202 35.158798c17.579399 0 32.961373 15.381974 32.961373 32.961374v134.042918c0 17.579399-15.381974 32.961373-32.961373 32.961374h-35.158799c-17.579399 0-32.961373-15.381974-32.961373-32.961374V68.120172c0-17.579399 15.381974-32.961373 32.961373-32.961374H732.841202m0-21.974249h-35.158799c-30.763948 0-54.935622 24.171674-54.935622 54.935623v134.042918c0 30.763948 24.171674 54.935622 54.935622 54.935622H732.841202c30.763948 0 54.935622-24.171674 54.935622-54.935622V68.120172c0-30.763948-24.171674-54.935622-54.935622-54.935623z" fill="#FFFFFF" p-id="2705"></path><path d="M291.158798 35.158798h35.158799c17.579399 0 32.961373 15.381974 32.961373 32.961374v134.042918c0 17.579399-15.381974 32.961373-32.961373 32.961374h-35.158799c-17.579399 0-32.961373-15.381974-32.961373-32.961374V68.120172c0-17.579399 15.381974-32.961373 32.961373-32.961374z" fill="#FDDFDF" p-id="2706"></path><path d="M326.317597 35.158798c17.579399 0 32.961373 15.381974 32.961373 32.961374v134.042918c0 17.579399-15.381974 32.961373-32.961373 32.961374h-35.158799c-17.579399 0-32.961373-15.381974-32.961373-32.961374V68.120172c0-17.579399 15.381974-32.961373 32.961373-32.961374h35.158799m0-21.974249h-35.158799c-30.763948 0-54.935622 24.171674-54.935622 54.935623v134.042918c0 30.763948 24.171674 54.935622 54.935622 54.935622h35.158799c30.763948 0 54.935622-24.171674 54.935622-54.935622V68.120172C381.253219 37.356223 357.081545 13.184549 326.317597 13.184549z" fill="#FFFFFF" p-id="2707"></path><path d="M201.064378 547.158798h13.184549c24.171674 0 43.948498 19.776824 43.948498 43.948498v15.381974c0 24.171674-19.776824 43.948498-43.948498 43.948498h-13.184549c-24.171674 0-43.948498-19.776824-43.948498-43.948498v-15.381974c0-24.171674 19.776824-43.948498 43.948498-43.948498zM504.309013 547.158798h13.184549c24.171674 0 43.948498 19.776824 43.948498 43.948498v15.381974c0 24.171674-19.776824 43.948498-43.948498 43.948498h-13.184549c-24.171674 0-43.948498-19.776824-43.948498-43.948498v-15.381974c0-24.171674 19.776824-43.948498 43.948498-43.948498zM809.751073 547.158798h13.184549c24.171674 0 43.948498 19.776824 43.948498 43.948498v15.381974c0 24.171674-19.776824 43.948498-43.948498 43.948498h-13.184549c-24.171674 0-43.948498-19.776824-43.948498-43.948498v-15.381974c0-24.171674 19.776824-43.948498 43.948498-43.948498zM201.064378 751.519313h13.184549c24.171674 0 43.948498 19.776824 43.948498 43.948498v13.18455c0 24.171674-19.776824 43.948498-43.948498 43.948497h-13.184549c-24.171674 0-43.948498-19.776824-43.948498-43.948497v-13.18455c0-24.171674 19.776824-43.948498 43.948498-43.948498zM504.309013 751.519313h13.184549c24.171674 0 43.948498 19.776824 43.948498 43.948498v13.18455c0 24.171674-19.776824 43.948498-43.948498 43.948497h-13.184549c-24.171674 0-43.948498-19.776824-43.948498-43.948497v-13.18455c0-24.171674 19.776824-43.948498 43.948498-43.948498zM809.751073 751.519313h13.184549c24.171674 0 43.948498 19.776824 43.948498 43.948498v13.18455c0 24.171674-19.776824 43.948498-43.948498 43.948497h-13.184549c-24.171674 0-43.948498-19.776824-43.948498-43.948497v-13.18455c0-24.171674 19.776824-43.948498 43.948498-43.948498z" fill="#EE9B9B" p-id="2708"></path></svg>