<svg t="1676285098617" class="icon" viewBox="0 0 1024 1024" version="1.1" xmlns="http://www.w3.org/2000/svg" p-id="11640" width="200" height="200"><path d="M185.53 414.9c-0.46 0.36-0.92 0.72-1.37 1.09l-0.59 0.49c0.38-0.29 1.11-0.87 2.35-1.88zM640.18 274.41c-2.09-1.6-6-4.26 0 0zM675.37 309.2c-0.73-0.88-0.67-0.75 2.06 2.54l-0.22-0.28zM863.39 619.61c0.07-0.1 0.14-0.21 0.22-0.31-1.9 2.31-2.63 3.23-2.73 3.39 0.16-0.2 0.33-0.39 0.5-0.59 0.68-0.82 1.34-1.66 2.01-2.49z" fill="#0071C3" p-id="11641"></path><path d="M950.07 464.77c-12.76-39.24-36.45-76-69.08-101.59-20.42-16-43.13-28.59-68.49-35a177.52 177.52 0 0 0-58.74-4.43c-31.66-71-97.54-123.88-172-145.27-81.21-23.33-175.79-7.76-243.48 43.53-34.65 26.25-61.72 59.34-78.23 99.36-37 5.22-73.1 18.33-103.49 40.38-36.45 26.48-63.95 61.5-79.56 103.86C62.27 505.5 61.21 551.25 73.23 592c12 40.54 36.48 77.49 68.46 105a274.45 274.45 0 0 0 135.93 63c8.28 1.3 15.71 1.35 23.22-3 6.26-3.66 12.22-10.83 13.85-18 1.76-7.72 1.38-16.38-3-23.22-4-6.17-10.44-12.66-18-13.85a263 263 0 0 1-56.82-15.53 242.13 242.13 0 0 1-33.49-18q-4.62-3-9.1-6.17c-1.21-0.87-2.41-1.76-3.61-2.64-5.08-4.12-10-8.37-14.78-12.9s-9.39-9.42-13.74-14.46c-2.16-2.5-4.19-5.09-6.28-7.64 7.19 8.78-0.27-0.52-1.91-2.87a190.27 190.27 0 0 1-17.13-30.21 180.26 180.26 0 0 1-10.4-37.73 180 180 0 0 1 0-38.69 180.45 180.45 0 0 1 10.4-37.82 183 183 0 0 1 15.47-27.59c1.38-2 2.85-4 4.29-6 0.65-0.81 1.31-1.61 2-2.41q5.87-7 12.39-13.44 6.06-6 12.63-11.37c-1 0.81 0.69-0.62 2-1.58l2.25-1.8-1.86 1.5q3.75-2.75 7.62-5.32a202.57 202.57 0 0 1 28.93-15.95 214.05 214.05 0 0 1 46.83-12.75q3.88-0.43 7.77-0.74c6.83 1 14.07 0.16 20-3.64 6.64-4.28 11.65-10.28 13.85-18q1.71-6 3.81-11.84c0.64-1.77 1.32-3.53 2-5.28a190.36 190.36 0 0 1 17.23-30.5c1.76-2.54 3.63-5 5.46-7.49-6.72 9.19 0.93-1 2.85-3.19q6.36-7.38 13.4-14.13t14.75-12.94c1.28-0.95 2.55-1.9 3.85-2.82q3.94-2.83 8-5.48a243.32 243.32 0 0 1 34.59-18.68 262.43 262.43 0 0 1 58-15.72 261 261 0 0 1 60-0.24A252.06 252.06 0 0 1 589.9 245a255.83 255.83 0 0 1 37.15 20.15q4.85 3.18 9.55 6.6c1.56 1.13 3.07 2.33 4.64 3.44l-1.06-0.75 0.62 0.48q8.33 6.72 16 14.16t14.51 15.29c1.38 1.59 2.7 3.22 4 4.86 0.46 0.54 1.22 1.47 1.84 2.26l1.19 1.45-1-1.17 0.43 0.56c1.08 1.48 2.15 3 3.19 4.47a204.92 204.92 0 0 1 18.76 33.06c0.94 2.38 1.85 4.76 2.7 7.18a38.75 38.75 0 0 0 5.69 10.79c6.1 14.23 20.46 21.32 35.93 18q4.56-1 9.16-1.72A152.08 152.08 0 0 1 785 384a147 147 0 0 1 28.88 8 154.62 154.62 0 0 1 24.8 14.27c0.85 0.6 1.69 1.23 2.54 1.85 1.84 1.51 3.68 3 5.48 4.62 4 3.57 7.91 7.34 11.6 11.27 2.51 2.67 4.88 5.45 7.22 8.26 0.36 0.48 3.27 4.13 4.28 5.56q2.24 3.17 4.32 6.42a192.14 192.14 0 0 1 13.66 25.15 179.23 179.23 0 0 1 10.5 37.76 141.24 141.24 0 0 1 0.14 28.56 211.38 211.38 0 0 1-12.51 45.45 208.31 208.31 0 0 1-17 30.69q-2.56 3.81-5.29 7.49c0.3-0.36 0.62-0.76 1-1.19-0.41 0.49-0.81 1-1.21 1.5l-0.39 0.53a30 30 0 0 1-2.12 2.55q-6.15 7.38-13 14.18-7.15 7.14-15 13.58c-0.23 0.19-0.5 0.45-0.78 0.72l-1.44 1.08q-4.28 3.18-8.71 6.14a226.34 226.34 0 0 1-34.35 18.83 258.25 258.25 0 0 1-60.8 15.73l1.69-0.23c-6.87 1.1-12.74 3-18.07 8.37s-9.16 13.8-8.83 21.31c0.35 7.79 2.91 15.88 8.83 21.31 5.46 5 13.58 9.79 21.31 8.83 25.79-3.22 50.8-8.51 74.89-18.48a271.56 271.56 0 0 0 65.84-38.59c35.28-27.95 61.25-66.84 75.63-109.32 13.36-39.44 14.89-81.65 1.96-121.43z m-118 186.47a10.76 10.76 0 0 1-3.25 2.51z" fill="#0071C3" p-id="11642"></path><path d="M482 568.29v277c0 15.69 13.8 30.72 30 30s30-13.18 30-30v-277c0-15.69-13.8-30.72-30-30s-30 13.19-30 30z" fill="#FD9A16" p-id="11643"></path><path d="M361.67 733.05l43.1 48.63 68.8 77.63 15.93 18c10.38 11.7 32 11.49 42.43 0L576 828.49l70.25-77.69 16-17.75c10.53-11.64 12.35-31.09 0-42.43-11.48-10.54-31.18-12.43-42.42 0l-44.03 48.79-70.25 77.69-16.05 17.75h42.43l-43.1-48.63L420 708.6l-15.93-18c-10.44-11.78-31.91-11.45-42.42 0-11.54 12.57-11.14 29.86 0 42.43z" fill="#FD9A16" p-id="11644"></path></svg>